<svg width="119" height="119" viewBox="0 0 119 119" fill="none" xmlns="http://www.w3.org/2000/svg">
<path d="M59.5 0C26.6262 0 0 26.6262 0 59.5C0 92.3738 26.6262 119 59.5 119C92.3738 119 119 92.3738 119 59.5C119 26.6262 92.3738 0 59.5 0ZM59.5 14.875C64.4088 14.875 69.02 16.2138 73.4825 17.7013C70.3588 20.6763 66.7888 23.3537 67.3838 26.0312C67.9788 28.7088 77.6475 27.965 77.6475 33.4688C77.6475 37.485 71.4 38.675 75.7138 43.2863C80.92 48.4925 66.1937 57.8637 65.8962 64.7062C65.45 77.0525 78.3913 79.135 88.655 79.135C94.9025 79.135 96.5388 82.11 96.0925 85.68C88.06 97.1338 74.375 104.274 59.3513 104.274C53.6988 104.274 48.4925 102.935 43.5838 101.001C46.8563 94.4562 39.4188 81.515 32.4275 77.35C29.0063 73.9287 21.7175 75.2675 17.5525 73.6312C16.2137 69.615 14.875 65.5988 14.7263 61.1363C15.1725 60.3925 15.9162 59.7975 17.1062 59.7975C19.9325 59.7975 23.8 65.45 25.8825 64.855C28.56 64.26 14.875 45.3687 21.2712 41.65C24.2462 39.865 30.1962 47.4513 28.2625 39.27C26.4775 31.6838 33.6175 35.105 38.08 33.1713C41.9475 31.535 44.7738 27.0725 40.0138 24.395C39.1213 23.9487 38.08 22.9075 36.7413 21.5688C43.435 17.5525 51.17 15.0237 59.5 15.0237V14.875ZM93.8612 31.0887C96.5387 34.3612 98.6213 37.9312 100.406 41.7987C100.406 41.9475 100.406 42.0962 100.406 42.245C99.8113 43.2862 98.77 43.8812 97.1338 45.5175C92.9688 49.6825 92.3738 42.3938 90.5888 40.9062C88.655 39.1213 81.6637 41.2037 80.7712 38.9725C79.73 36.295 88.2087 32.725 93.8612 31.0887Z" fill="white"/>
</svg>
